<svg xmlns="http://www.w3.org/2000/svg" width="48" height="48" fill="#0A66C2" viewBox="0 0 24 24">
  <path d="M22.225 0H1.771C.792 0 0 .774 0 1.729v20.542C0 23.225.792 24 1.771 24h20.451C23.2 24 24 23.225 24 22.271V1.729C24 .774 23.2 0 22.222 0h.003zM7.059 20.452H3.58V9h3.478v11.452zM5.32 7.577a2.017 2.017 0 110-4.034 2.017 2.017 0 010 4.034zM20.452 20.452h-3.478v-5.568c0-1.328-.024-3.038-1.85-3.038-1.852 0-2.136 1.445-2.136 2.939v5.667h-3.478V9h3.339v1.561h.048c.465-.879 1.598-1.805 3.292-1.805 3.521 0 4.168 2.318 4.168 5.335v6.361z"/>
</svg>
