<svg xmlns="http://www.w3.org/2000/svg" width="48" height="48" fill="#25D366" viewBox="0 0 24 24">
  <path d="M.057 24l1.687-6.163a11.867 11.867 0 01-1.587-5.95C.16 5.355 5.443 0 12.057 0c3.187 0 6.167 1.24 8.413 3.488a11.822 11.822 0 013.484 8.413c-.003 6.627-5.388 12-12.017 12a11.95 11.95 0 01-6.144-1.688L.057 24zM6.403 20.318c1.823 1.078 3.289 1.723 5.653 1.725 5.448 0 9.886-4.42 9.889-9.869.002-5.462-4.415-9.887-9.881-9.889-5.455 0-9.886 4.42-9.889 9.877a9.84 9.84 0 001.763 5.574l-.999 3.648 3.464-.966zM17.507 14.29c-.297-.149-1.758-.867-2.03-.967-.273-.099-.471-.148-.67.15-.197.297-.767.966-.94 1.164-.173.199-.347.223-.644.075-.297-.149-1.255-.463-2.39-1.475-.883-.788-1.48-1.761-1.653-2.059-.173-.297-.018-.458.13-.606.134-.133.297-.347.446-.52.149-.173.199-.298.298-.497.099-.198.05-.372-.025-.521-.075-.149-.669-1.611-.916-2.207-.242-.579-.487-.5-.669-.51l-.57-.01c-.198 0-.52.074-.793.372s-1.04 1.016-1.04 2.479 1.065 2.876 1.213 3.074c.149.198 2.095 3.2 5.076 4.487.709.306 1.262.489 1.694.626.712.227 1.36.195 1.871.118.571-.085 1.758-.719 2.006-1.413.248-.694.248-1.289.173-1.413-.074-.124-.272-.198-.57-.347z"/>
</svg>
