<svg xmlns="http://www.w3.org/2000/svg" width="48" height="48" viewBox="0 0 48 48"><path fill="#F7DF1E" d="M6 42V6h36v36H6z"/><path d="M29.4 34c.8 1.3 1.8 2.3 3.6 2.3 1.5 0 2.4-.7 2.4-1.7 0-1.2-.9-1.6-2.6-2.3l-.9-.4c-2.6-1.1-4.3-2.4-4.3-5.2 0-2.6 2-4.6 5.1-4.6 2.2 0 3.7.8 4.8 2.7l-2.6 1.6c-.6-1.1-1.3-1.6-2.3-1.6s-1.6.6-1.6 1.6c0 1.1.6 1.5 2 2.1l.9.4c3.1 1.3 4.9 2.5 4.9 5.4 0 3.1-2.4 4.8-5.6 4.8-3.1 0-5.1-1.5-6.1-3.4l2.7-1.6zm-12.5.3c.6 1.1 1.1 2 2.3 2s1.9-.4 1.9-2V21.1h3.5V34.4c0 3.6-2.1 5.2-5.1 5.2-2.7 0-4.2-1.4-5-3l2.4-1.3z"/></svg>
