<svg xmlns="http://www.w3.org/2000/svg" width="48" height="48" viewBox="0 0 48 48"><path fill="#339933" d="M24 1l19.794 11.425v22.15L24 46 4.206 34.575v-22.15L24 1z"/><path fill="#fff" d="M25.005 34.642c0 2.386-1.38 3.48-3.515 3.48-1.878 0-2.958-.971-3.508-2.146l1.91-1.145c.368.653.7 1.206 1.497 1.206.764 0 1.25-.3 1.25-1.473V21.333h2.366v13.309zM29.39 37.985c-2.183 0-3.595-1.043-4.282-2.407l1.912-1.112c.503.822 1.158 1.427 2.317 1.427.973 0 1.597-.487 1.597-1.158 0-.803-.633-1.088-1.704-1.56l-.585-.25c-1.689-.718-2.809-1.62-2.809-3.532 0-1.757 1.34-3.09 3.429-3.09 1.49 0 2.565.518 3.337 1.87l-1.827 1.172c-.402-.718-.837-1-1.51-1-.687 0-1.124.437-1.124.999 0 .698.437.983 1.447 1.415l.585.25c1.988.852 3.108 1.73 3.108 3.7.001 2.114-1.66 3.17-3.79 3.17z"/></svg>
