<?xml version="1.0" encoding="UTF-8" standalone="no"?>
<svg
   version="1.1"
   width="512"
   height="512"
   viewBox="0 0 512 512"
   id="svg7341"
   xmlns="http://www.w3.org/2000/svg"
   xmlns:svg="http://www.w3.org/2000/svg">
  <defs
     id="defs1226" />
  <path
     id="rect5124"
     d="m 511.99998,351.83516 c 0,6.12196 0,12.23289 -0.0461,18.34375 -0.0303,5.15364 -0.0889,10.30723 -0.22264,15.44975 -0.14183,11.26721 -1.13147,22.50784 -2.96066,33.62648 -1.90331,11.13091 -5.45391,21.90566 -10.54043,31.97915 -10.30973,20.24041 -26.76418,36.69565 -47.00355,47.00585 -10.06879,5.07981 -20.8391,8.62885 -31.95526,10.52985 -11.13037,1.83663 -22.37204,2.82729 -33.63597,2.96088 -5.14863,0.13305 -10.29861,0.21086 -15.44893,0.23343 C 364.06475,512 357.95423,512 351.84365,512 H 160.15654 c -6.1106,0 -12.22118,0 -18.34287,-0.0303 -5.15027,-0.0202 -10.30024,-0.0933 -15.44893,-0.22265 -11.27074,-0.1438 -22.51459,-1.13722 -33.635973,-2.97193 C 81.609534,506.88277 70.835386,503.32083 60.773518,498.24513 40.53629,487.93688 24.082204,471.48584 13.769978,451.25005 8.6849821,441.17033 5.1323907,430.38818 3.2295554,419.25979 1.4003964,408.14487 0.41070685,396.90797 0.26888382,385.64443 0.13525271,380.49079 0.06869317,375.33719 0.04616531,370.18359 8.5595431e-5,364.06157 8.5595431e-5,357.9618 8.5595431e-5,351.83984 V 160.16536 c 0,-6.12203 0,-12.24402 0.04607971457,-18.366 0.02047999,-5.14254 0.0890874,-10.29612 0.22271851,-15.4386 C 0.41070685,115.09722 1.4005499,103.86031 3.2295554,92.745342 5.1328515,81.614461 8.6834465,70.839725 13.769978,60.755109 24.079696,40.514722 40.534141,24.059397 60.773518,13.749199 70.839427,8.6720017 81.605694,5.1230731 92.717658,3.2193543 103.848,1.3938691 115.08965,0.40325128 126.35357,0.25856007 131.50698,0.12492804 136.66033,0.05836803 141.80251,0.03584 147.92425,0 154.04594,0 160.14537,0 h 191.68707 c 6.12173,0 12.24343,0 18.35397,0.03584 5.15029,0.02048 10.3002,0.09318404 15.44893,0.22272007 11.26393,0.14489601 22.5056,1.13530903 33.62482,2.96079423 11.13035,1.9034116 21.89345,5.4541834 31.96641,10.5298447 20.24443,10.307074 36.70329,26.762913 47.01467,47.00591 5.08069,10.076629 8.62953,20.855001 10.52931,31.979124 1.82932,11.118647 2.819,22.359257 2.9607,33.626527 0.13371,5.15359 0.20007,10.30722 0.22264,15.44971 0.0462,6.12198 0.0462,12.23286 0.0462,18.34373 z"
     style="fill:#00abfa" />
  <path
     id="path1204"
     d="m 254.42395,77.908904 c -8.02033,0 -16.05052,0.190798 -24.06024,0.562991 -3.91464,0.191413 -7.82871,0.428111 -11.74335,0.704602 -9.79634,0.701848 -19.53931,1.755009 -29.27374,2.818408 -9.52039,1.042144 -19.10279,2.232615 -28.26143,5.14636 -8.35006,2.658509 -16.25577,8.761057 -20.56382,16.513245 -2.65942,4.78532 -3.56383,10.28192 -3.62769,15.69468 -0.0639,5.75299 0.50246,11.49574 0.43877,17.24892 -0.0639,6.08264 -0.40487,12.16499 -0.91556,18.22642 -1.0212,12.02714 -2.74444,23.98225 -4.44651,35.92433 l -0.0656,0.42484 c -6.19091,43.08914 -19.67651,129.06636 -29.50522,176.37851 l -0.12783,0.61476 c -2.446611,12.93243 -0.60714,32.12491 11.91264,47.236 7.88218,9.51583 22.75302,20.83362 48.846,20.85484 29.12474,0.0319 43.07964,-4.29932 54.65376,-7.87152 18.30666,-5.64653 28.77403,-17.63037 31.668,-23.60761 11.21148,17.30217 37.18751,31.51021 63.12181,31.51021 0.92515,0 1.86941,-0.02 2.81578,-0.0518 19.98715,-0.78693 35.65718,-3.66136 45.29432,-5.9373 9.57345,-2.26535 19.13566,-6.32733 27.51862,-10.68647 14.6043,-7.59356 21.64837,-26.43408 14.65933,-41.34357 -12.92381,-27.55363 -32.94574,-69.26083 -40.63706,-90.59318 12.62664,-9.92079 22.52168,-20.31998 30.23422,-31.79346 6.94659,-10.32645 11.94258,-21.4522 14.86663,-33.06448 1.37269,-5.45537 2.3302,-11.42065 2.92633,-18.22639 0.8933,-10.25115 0.56526,-20.6179 -0.99848,-30.816 -1.39391,-9.11351 -3.74527,-21.01413 -9.56328,-32.3288 C 392.98512,128.6121 384.16836,116.87223 373.07361,107.57816 356.87198,94.009047 336.13969,86.256896 315.60063,82.215947 295.46312,78.24945 274.87987,77.908894 254.42395,77.908894 Z m 3.09217,36.107396 c 6.06426,0.0653 12.12788,0.2586 18.18336,0.58026 22.34868,1.18024 45.27207,3.31936 65.16369,14.50653 11.7864,6.63561 20.43429,17.00326 26.55126,28.89214 3.27605,6.36982 4.89293,14.20544 5.96667,21.24514 1.12681,7.32688 1.37129,14.79404 0.72209,22.1846 -0.36086,4.20052 -0.93457,8.47479 -1.96586,12.56886 -1.9476,7.7628 -5.35087,15.07925 -9.80858,21.71487 -6.21249,9.24102 -14.30731,17.10939 -23.06175,23.92539 -6.39292,4.97632 -13.18068,9.42187 -20.18034,13.49451 14.46632,46.64189 40.98601,110.14695 50.2729,115.11265 -3.19115,3.64823 -25.35781,10.25214 -55.49332,11.83662 -23.52855,1.24497 -31.99968,-24.5091 -31.99968,-24.5091 l -28.70713,-83.12925 h -27.43225 c -7.75499,50.02311 -14.43536,87.23479 -6.74404,95.39071 0,0 -6.12778,8.20614 -44.73116,11.98171 -10.59378,1.04158 -25.79473,-0.21098 -31.7302,-10.58976 -6.64835,-11.63439 -1.78645,-27.24243 0.3835,-39.41974 4.6698,-26.13715 9.33935,-52.24608 13.49846,-78.46989 3.96754,-24.96893 7.73341,-49.9799 11.32876,-75.01249 0.12755,-0.88262 0.24559,-1.75297 0.37314,-2.62501 1.1383,-8.00734 2.26358,-16.01724 3.18891,-24.05662 0.93612,-8.0606 1.66976,-16.15366 2.0315,-24.26733 0.35149,-7.94371 0.27899,-15.9375 -0.20038,-23.84939 -0.10631,-2.02043 27.23096,-4.31962 29.92327,-4.63864 18.06963,-2.10551 36.2744,-3.06268 54.46718,-2.86677 z m -0.19347,39.36792 c -3.48701,-0.0308 -6.96866,0.10376 -10.35793,0.33503 -4.61514,31.13647 -8.31917,57.37088 -14.96682,98.20566 17.97588,-0.37207 58.81381,6.4742 67.79291,-49.33251 6.51476,-40.63419 -18.05916,-48.99257 -42.46816,-49.20818 z"
     style="fill:#ffffff" />
</svg>
